<svg width="95" height="17" viewBox="0 0 95 17" fill="none" xmlns="http://www.w3.org/2000/svg">
<path d="M9.68 4.08C9.37067 3.42933 8.92267 2.928 8.336 2.576C7.74933 2.21333 7.06667 2.032 6.288 2.032C5.50933 2.032 4.80533 2.21333 4.176 2.576C3.55733 2.928 3.06667 3.44 2.704 4.112C2.352 4.77333 2.176 5.54133 2.176 6.416C2.176 7.29067 2.352 8.05867 2.704 8.72C3.06667 9.38133 3.55733 9.89333 4.176 10.256C4.80533 10.608 5.50933 10.784 6.288 10.784C7.376 10.784 8.272 10.4587 8.976 9.808C9.68 9.15733 10.0907 8.27733 10.208 7.168H5.76V5.984H11.76V7.104C11.6747 8.02133 11.3867 8.864 10.896 9.632C10.4053 10.3893 9.76 10.992 8.96 11.44C8.16 11.8773 7.26933 12.096 6.288 12.096C5.25333 12.096 4.30933 11.856 3.456 11.376C2.60267 10.8853 1.92533 10.208 1.424 9.344C0.933333 8.48 0.688 7.504 0.688 6.416C0.688 5.328 0.933333 4.352 1.424 3.488C1.92533 2.61333 2.60267 1.936 3.456 1.456C4.30933 0.965333 5.25333 0.719999 6.288 0.719999C7.472 0.719999 8.51733 1.01333 9.424 1.6C10.3413 2.18667 11.008 3.01333 11.424 4.08H9.68ZM15.1411 4.656C15.3971 4.15467 15.7598 3.76533 16.2291 3.488C16.7091 3.21067 17.2905 3.072 17.9731 3.072V4.576H17.5891C15.9571 4.576 15.1411 5.46133 15.1411 7.232V12H13.6851V3.232H15.1411V4.656ZM27.4299 3.232V12H25.9739V10.704C25.6965 11.152 25.3072 11.504 24.8059 11.76C24.3152 12.0053 23.7712 12.128 23.1739 12.128C22.4912 12.128 21.8779 11.9893 21.3339 11.712C20.7899 11.424 20.3579 10.9973 20.0379 10.432C19.7285 9.86667 19.5739 9.17867 19.5739 8.368V3.232H21.0139V8.176C21.0139 9.04 21.2325 9.70667 21.6699 10.176C22.1072 10.6347 22.7045 10.864 23.4619 10.864C24.2405 10.864 24.8539 10.624 25.3019 10.144C25.7499 9.664 25.9739 8.96533 25.9739 8.048V3.232H27.4299ZM31.3443 4.848C31.6323 4.34667 32.0589 3.93067 32.6243 3.6C33.2003 3.25867 33.8669 3.088 34.6243 3.088C35.4029 3.088 36.1069 3.27467 36.7362 3.648C37.3762 4.02133 37.8776 4.54933 38.2403 5.232C38.6029 5.904 38.7843 6.688 38.7843 7.584C38.7843 8.46933 38.6029 9.25867 38.2403 9.952C37.8776 10.6453 37.3762 11.184 36.7362 11.568C36.1069 11.952 35.4029 12.144 34.6243 12.144C33.8776 12.144 33.2163 11.9787 32.6403 11.648C32.0749 11.3067 31.6429 10.8853 31.3443 10.384V16.16H29.8883V3.232H31.3443V4.848ZM37.2963 7.584C37.2963 6.92267 37.1629 6.34667 36.8963 5.856C36.6296 5.36533 36.2669 4.992 35.8083 4.736C35.3603 4.48 34.8643 4.352 34.3203 4.352C33.7869 4.352 33.2909 4.48533 32.8323 4.752C32.3843 5.008 32.0216 5.38667 31.7443 5.888C31.4776 6.37867 31.3443 6.94933 31.3443 7.6C31.3443 8.26133 31.4776 8.84267 31.7443 9.344C32.0216 9.83467 32.3843 10.2133 32.8323 10.48C33.2909 10.736 33.7869 10.864 34.3203 10.864C34.8643 10.864 35.3603 10.736 35.8083 10.48C36.2669 10.2133 36.6296 9.83467 36.8963 9.344C37.1629 8.84267 37.2963 8.256 37.2963 7.584ZM44.5248 12.144C43.7034 12.144 42.9568 11.9573 42.2848 11.584C41.6234 11.2107 41.1008 10.6827 40.7168 10C40.3434 9.30667 40.1568 8.50667 40.1568 7.6C40.1568 6.704 40.3488 5.91467 40.7328 5.232C41.1274 4.53867 41.6608 4.01067 42.3328 3.648C43.0048 3.27467 43.7568 3.088 44.5888 3.088C45.4208 3.088 46.1728 3.27467 46.8448 3.648C47.5168 4.01067 48.0448 4.53333 48.4288 5.216C48.8234 5.89867 49.0208 6.69333 49.0208 7.6C49.0208 8.50667 48.8181 9.30667 48.4128 10C48.0181 10.6827 47.4794 11.2107 46.7968 11.584C46.1141 11.9573 45.3568 12.144 44.5248 12.144ZM44.5248 10.864C45.0474 10.864 45.5381 10.7413 45.9968 10.496C46.4554 10.2507 46.8234 9.88267 47.1008 9.392C47.3888 8.90133 47.5328 8.304 47.5328 7.6C47.5328 6.896 47.3941 6.29867 47.1168 5.808C46.8394 5.31733 46.4768 4.95467 46.0288 4.72C45.5808 4.47467 45.0954 4.352 44.5728 4.352C44.0394 4.352 43.5488 4.47467 43.1008 4.72C42.6634 4.95467 42.3114 5.31733 42.0448 5.808C41.7781 6.29867 41.6448 6.896 41.6448 7.6C41.6448 8.31467 41.7728 8.91733 42.0288 9.408C42.2954 9.89867 42.6474 10.2667 43.0848 10.512C43.5221 10.7467 44.0021 10.864 44.5248 10.864ZM61.7928 9.52H56.9288L56.0328 12H54.4967L58.5288 0.912H60.2088L64.2248 12H62.6888L61.7928 9.52ZM61.3768 8.336L59.3608 2.704L57.3448 8.336H61.3768ZM67.438 0.16V12H65.982V0.16H67.438ZM77.6955 3.232V12H76.2395V10.704C75.9622 11.152 75.5728 11.504 75.0715 11.76C74.5808 12.0053 74.0368 12.128 73.4395 12.128C72.7568 12.128 72.1435 11.9893 71.5995 11.712C71.0555 11.424 70.6235 10.9973 70.3035 10.432C69.9942 9.86667 69.8395 9.17867 69.8395 8.368V3.232H71.2795V8.176C71.2795 9.04 71.4982 9.70667 71.9355 10.176C72.3728 10.6347 72.9702 10.864 73.7275 10.864C74.5062 10.864 75.1195 10.624 75.5675 10.144C76.0155 9.664 76.2395 8.96533 76.2395 8.048V3.232H77.6955ZM81.6099 4.656C81.8659 4.15467 82.2285 3.76533 82.6979 3.488C83.1779 3.21067 83.7592 3.072 84.4419 3.072V4.576H84.0579C82.4259 4.576 81.6099 5.46133 81.6099 7.232V12H80.1539V3.232H81.6099V4.656ZM85.5786 7.584C85.5786 6.688 85.76 5.904 86.1226 5.232C86.4853 4.54933 86.9813 4.02133 87.6106 3.648C88.2506 3.27467 88.96 3.088 89.7386 3.088C90.5066 3.088 91.1733 3.25333 91.7386 3.584C92.304 3.91467 92.7253 4.33067 93.0026 4.832V3.232H94.4746V12H93.0026V10.368C92.7146 10.88 92.2826 11.3067 91.7066 11.648C91.1413 11.9787 90.48 12.144 89.7226 12.144C88.944 12.144 88.24 11.952 87.6106 11.568C86.9813 11.184 86.4853 10.6453 86.1226 9.952C85.76 9.25867 85.5786 8.46933 85.5786 7.584ZM93.0026 7.6C93.0026 6.93867 92.8693 6.36267 92.6026 5.872C92.336 5.38133 91.9733 5.008 91.5146 4.752C91.0666 4.48533 90.5706 4.352 90.0266 4.352C89.4826 4.352 88.9866 4.48 88.5386 4.736C88.0906 4.992 87.7333 5.36533 87.4666 5.856C87.2 6.34667 87.0666 6.92267 87.0666 7.584C87.0666 8.256 87.2 8.84267 87.4666 9.344C87.7333 9.83467 88.0906 10.2133 88.5386 10.48C88.9866 10.736 89.4826 10.864 90.0266 10.864C90.5706 10.864 91.0666 10.736 91.5146 10.48C91.9733 10.2133 92.336 9.83467 92.6026 9.344C92.8693 8.84267 93.0026 8.26133 93.0026 7.6Z" fill="black"/>
</svg>
